<?xml version="1.0" encoding="utf-8"?>
<!-- Generator: Adobe Illustrator 17.0.0, SVG Export Plug-In . SVG Version: 6.00 Build 0)  -->
<!DOCTYPE svg PUBLIC "-//W3C//DTD SVG 1.1//EN" "http://www.w3.org/Graphics/SVG/1.1/DTD/svg11.dtd">
<svg version="1.1" id="Layer_1" xmlns="http://www.w3.org/2000/svg" xmlns:xlink="http://www.w3.org/1999/xlink" x="0px" y="0px"
	 width="1080px" height="1080px" viewBox="0 0 1080 1080" enable-background="new 0 0 1080 1080" xml:space="preserve">
<path fill="none" stroke="#00AEEF" stroke-width="109.339" stroke-miterlimit="10" d="M143.897,540.498
	c0-114.782,93.049-207.831,207.831-207.831"/>
<path fill="none" stroke="#00AEEF" stroke-width="109.339" stroke-miterlimit="10" d="M337.401,747.843
	c-108.099-7.36-193.504-97.379-193.504-207.345"/>
<path fill="none" stroke="#00AEEF" stroke-width="55.4216" stroke-miterlimit="10" d="M330.619,748.329
	c-4.816,0-9.593-0.164-14.327-0.486"/>
<path fill="none" stroke="#00AEEF" stroke-width="109.339" stroke-miterlimit="10" d="M559.473,548.487
	c0,93.477-69.673,172.293-164.786,196.598"/>
<path fill="none" stroke="#00AEEF" stroke-width="109.339" stroke-miterlimit="10" d="M559.81,560.317
	c-6.067-59.84,15.673-121.551,58.32-165.491c52.723-52.723,132.606-76.688,205.297-54.516"/>
<path fill="none" stroke="#000000" stroke-width="55.4216" stroke-miterlimit="10" d="M559.81,558.719"/>
<path fill="none" stroke="#000000" stroke-width="55.4216" stroke-miterlimit="10" d="M606.769,672.397"/>
<path fill="none" stroke="#000000" stroke-width="3.1953" stroke-miterlimit="10" d="M963.177,588.954"/>
<path fill="none" stroke="#000000" stroke-width="2.3561" stroke-miterlimit="10" d="M885.477,514.995"/>
<path fill="none" stroke="#000000" stroke-width="2.3561" stroke-miterlimit="10" d="M890.189,571.542"/>
<circle opacity="0.6" fill="none" stroke="#00AEEF" stroke-width="7.9883" stroke-miterlimit="10" cx="351.728" cy="537.317" r="205.702"/>
<circle opacity="0.6" fill="none" stroke="#00AEEF" stroke-width="7.9883" stroke-miterlimit="10" cx="757.377" cy="540.194" r="205.702"/>
</svg>
