<?xml version="1.0" encoding="utf-8"?>
<!-- Generator: Adobe Illustrator 17.0.0, SVG Export Plug-In . SVG Version: 6.00 Build 0)  -->
<!DOCTYPE svg PUBLIC "-//W3C//DTD SVG 1.1//EN" "http://www.w3.org/Graphics/SVG/1.1/DTD/svg11.dtd">
<svg version="1.1" id="Layer_1" xmlns="http://www.w3.org/2000/svg" xmlns:xlink="http://www.w3.org/1999/xlink" x="0px" y="0px"
	 width="1080px" height="1080px" viewBox="0 0 1080 1080" enable-background="new 0 0 1080 1080" xml:space="preserve">
<path fill="none" stroke="#00AEEF" stroke-width="69.988" stroke-miterlimit="10" d="M78.897,522.841
	c0-68.622,55.629-124.251,124.251-124.251"/>
<path fill="none" stroke="#00AEEF" stroke-width="69.988" stroke-miterlimit="10" d="M194.583,646.802
	c-64.627-4.4-115.686-58.218-115.686-123.961"/>
<path fill="none" stroke="#00AEEF" stroke-width="33.1337" stroke-miterlimit="10" d="M190.528,647.093
	c-2.879,0-5.735-0.098-8.565-0.291"/>
<path fill="none" stroke="#00AEEF" stroke-width="69.988" stroke-miterlimit="10" d="M327.349,527.617
	c0,55.885-41.654,103.005-98.517,117.536"/>
<path fill="none" stroke="#00AEEF" stroke-width="69.988" stroke-miterlimit="10" d="M327.55,534.69
	c-3.627-35.775,9.37-72.669,34.867-98.938c31.52-31.52,79.278-45.848,122.737-32.592"/>
<path fill="none" stroke="#000000" stroke-width="33.1337" stroke-miterlimit="10" d="M327.55,533.735"/>
<path fill="none" stroke="#000000" stroke-width="33.1337" stroke-miterlimit="10" d="M355.624,601.697"/>
<path fill="none" stroke="rgb(47, 8, 8)" stroke-width="1.9103" stroke-miterlimit="10" d="M396.802,551.421l-7.641,50.276
	c1.91,46.232,31.712,19.355,31.712,19.355s0.763,22.287,0,31.202s-8.789,20.377-8.789,20.377s-15.283,21.013-22.287-1.274
	c0,0,1.307-16.556,16.254-17.193l-3.519-18.466c0,0-12.099,1.91-19.74,13.372c0,0-12.099,28.655,14.009,42.027
	c1.134,0.581,21.013,7.005,36.296-23.561c1.452-2.904,12.099-98.973,28.655-124.626h-27.381c0,0-8.915,70.5-13.372,67.316
	c-2.136-1.526-18.366,6.498-12.099-20.377c1.591-6.821,12.099-46.939,12.099-46.939c-12.099-2.365-24.197,0-24.197,0V551.421z"/>
<path fill="none" stroke="#000000" stroke-width="1.9103" stroke-miterlimit="10" d="M620.309,601.697"/>
<path fill="none" stroke="rgb(47, 8, 8)" stroke-width="1.9103" stroke-miterlimit="10" d="M461.753,614.684l-7.004,10.825
	c0,0,20.377,8.278,26.108,0c0,0,1.91-5.651-2.547-8.557l6.844-46.206c0.16,0.637,12.734-16.497,13.532-11.044
	c0,0,8.278,46.066-7.641,65.169c-0.912,1.094,14.646,6.058,17.193,0.637c5.483-11.67,15.919-63.04,15.919-63.04l18.466-14.009
	l-0.637,2.961c0,0-3.821,11.048-6.368,35.882c-2.547,24.834-2.547,19.74,5.094,36.296c7.641,16.556,31.202-15.919,31.202-15.919
	s-12.735,64.951-17.193,79.596c-4.457,14.646,22.287,0,22.287,0s8.278-35.022,12.099-60.493c3.821-25.471,3.502-59.857,3.502-59.857
	s16.238-24.197,21.969-19.103l-10.825,30.565c0,0-17.193,38.843,10.188,47.758c0,0,11.462,2.547,29.292-12.735
	c0,0,19.139,23.68,24.834,22.287c0,0,22.287-3.489,26.744-18.745c0,0,4.457,5.452,12.099,0c0,0,7.641-5.452,8.915-12.139
	l13.372-3.118c0,0-1.273,22.539,22.287,26.36c39.484,6.403,38.843-41.39,33.112-56.036c-5.731-14.646-6.368-39.019-6.368-39.019
	s-15.283,1.233-14.646,5.799c0,0-8.915-5.782-14.009-4.11v16.731l-10.188,13.47c0,0-17.192,1.15-21.65,7.13
	c0,0-11.462,12.099-6.368,20.377c0,0-8.278,20.509-12.099,9.299c0,0,7.428-43.953,4.457-50.276
	c-2.009-4.275-9.552-12.621-9.552-12.621s-7.641-9.717-29.292,4.11c0,0-29.292,22.742-22.924,48.213l-7.189,13.691
	c-21.835,17.511-18.282-13.054-18.282-13.054s21.65-41.606,17.83-52.96c0,0-3.821-11.354-14.009-10.717l-21.65,13.776l3.821-27.785
	c0,0-7.641-5.731-14.009-5.731c0,0-13.372,55.577-12.735,74.273l-18.466,29.521c0,0-6.368,14.009-12.099,7.641l1.91-18.082
	l14.646-59.837c0,0-5.094-10.236-16.556-11.051c0,0-14.646,23.578-22.924,24.754V538.8c0,0-9.001-13.049-12.735-5.799
	c-2.327,4.516-19.103,22.561-19.103,22.561s3.821-16.017,3.821-19.661s-19.74-2.899-19.74-2.899l-5.094,5.799
	c0,0,3.184-0.802,2.547,4.11C471.305,547.823,473.852,550.37,461.753,614.684z"/>
<path fill="none" stroke="#000000" stroke-width="1.9103" stroke-miterlimit="10" d="M680.166,546.55"/>
<path fill="none" stroke="#000000" stroke-width="1.9103" stroke-miterlimit="10" d="M683.987,592.397"/>
<path fill="none" stroke="rgb(47, 8, 8)" stroke-width="1.9103" stroke-miterlimit="10" d="M680.166,542.911c0,0,0,14.027,3.821,16.793
	c3.821,2.766-15.283,27.6-7.641,30.147c7.641,2.547,7.641,2.547,7.641,2.547s0,10.188-3.821,17.83
	c-3.821,7.641-11.462,15.919-11.462,15.919s-10.523-23.379-9.719-41.618c0.804-18.239,18.634-41.618,18.634-41.618H680.166z"/>
<path fill="none" stroke="rgb(47, 8, 8)" stroke-width="1.9103" stroke-miterlimit="10" d="M755.942,563.743
	c0,0,14.009,26.108,2.547,41.072c-11.462,14.964-19.74,16.238-17.83-7.323C742.57,573.931,755.942,563.743,755.942,563.743z"/>
<path fill="none" stroke="#000000" stroke-width="1.9103" stroke-miterlimit="10" d="M916.408,458.175"/>
<path fill="none" stroke="rgb(47, 8, 8)" stroke-width="1.9103" stroke-miterlimit="10" d="M913.861,626.146l-10.188,3.821l-5.731-3.821
	c0,0-7.521,3.277-10.825,3.184c0,0-14.009,1.353-19.74-12.377l-11.462,13.014c-25.471,12.735-21.65-14.277-21.65-14.277
	c-7.004,16.288-24.197,22.555-24.197,22.555s-14.009-8.915-18.466-21.292c-4.457-12.377,18.466-83.951,18.466-83.951
	s12.099,9.568,17.193,1.688c5.094-7.88-22.287,66.127-12.099,66.375c10.188,0.248,12.456,2.492,26.108-37.322
	c6.557-19.125-3.184-21.883-3.184-21.883l-0.637-8.858c19.413-4.237,29.298,9.876,28.018,8.858
	c-5.094-4.053-7.641,21.883-7.641,21.883s-1.212,22.287-5.382,33.112s14.296,6.099,18.754-7.139s8.915-43.166,8.915-43.166
	l-5.094-3.639l0.637-8.221c0,0,18.466-4.912,24.197,4.11l-14.646,56.781c-3.239,12.557,7.641,9.233,7.641,9.233
	c7.641,9.233,21.013-53.393,21.013-53.393s-8.278-7.634-7.005-12.621s14.009-6.419,15.283-4.11c1.274,2.308,12.735,0,12.735,0
	s1.91,0.761,0,8.221c-1.91,7.46-0.637,16.546,8.915-1.051l8.915-13.776c0,3.821,7.641,6.607,7.641,6.607v20.872l26.744-27.479
	l11.462,6.607c-7.005,14.248-8.278,67.007-8.278,67.007c-1.627,29.541,19.74-17.168,19.74-17.168l4.457-8.051
	c0,0-7.641,38.843,0,33.112"/>
<path fill="none" stroke="rgb(47, 8, 8)" stroke-width="1.9103" stroke-miterlimit="10" d="M1012.277,609.813
	c-37.853,47.344-38.56-4.998-38.56-4.998l5.731-49.252c0.776-6.668-18.466,12.638-18.466,12.638
	c-3.821,56.036-7.641,57.946-7.641,57.946c-2.381,7.922-22.924,3.486-22.924,3.486l6.368-28.568c0,0,3.821-11.037,4.457-18.448
	s-5.094-18.237-10.825-18.874c-5.731-0.637-14.009,37.954-14.009,37.954l5.094,3.118l-5.094,12.139l3.184,5.373l-3.184,3.821h-4.457
	"/>
<path fill="none" stroke="rgb(47, 8, 8)" stroke-width="1.9103" stroke-miterlimit="10" d="M836.812,506.284
	c0,0-7.467,18.956-14.327,16.557c0,0-13.513-1.985-9.87-10.677c12.07-28.801,19.74-21.65,19.74-21.65l4.457,4.457V506.284z"/>
<circle opacity="0.6" fill="none" stroke="rgb(47, 8, 8)" stroke-width="4.7758" stroke-miterlimit="10" cx="203.148" cy="522.66" r="122.979"/>
<circle opacity="0.6" fill="none" stroke="rgb(47, 8, 8)" stroke-width="4.7758" stroke-miterlimit="10" cx="449.106" cy="521.327" r="122.979"/>
<path fill="#00AEEF" d="M456.239,542.187c-0.219,0.129-0.445,0.247-0.671,0.363c-0.45-0.043-0.904-0.041-1.352,0.04
	c-0.63,0.062-1.266,0.247-1.878,0.62c-2.623-0.302-5.156-0.013-7.762,0.573c-0.561-0.503-1.229-0.869-1.962-1.035
	c-1.005-0.493-2.335-0.713-3.382-0.326c-0.108,0.04-0.216,0.086-0.324,0.128c-1.406-0.164-2.873,0.279-3.932,1.339
	c-1.167,1.167-1.588,2.83-1.274,4.361c-0.041,0.757,0.085,1.551,0.411,2.333c-0.321,0.612-0.525,1.33-0.536,2.176
	c-0.007,0.532-0.044,1.061-0.063,1.591c-1.057,0.763-1.804,1.982-1.848,3.662c-0.12,4.656-1.312,9.19-1.433,13.85
	c-0.022,0.838,0.193,1.565,0.543,2.194c-0.632,2.954-1.311,5.901-1.992,8.849c-0.127,0.319-0.226,0.67-0.291,1.059
	c-0.061,0.367-0.133,0.731-0.203,1.096c-0.284,1.241-0.562,2.483-0.834,3.727c-1.427,5.677-3.301,11.255-3.081,17.098
	c-0.032,0.061-0.069,0.117-0.097,0.181c-0.079,0.171-0.147,0.346-0.223,0.518c-0.304,0.429-0.563,0.898-0.736,1.419
	c-0.08,0.239-0.159,0.478-0.239,0.716c-0.011,0.032-0.012,0.065-0.022,0.097c-1.326,0.745-2.715,1.411-4.14,1.986
	c-0.636-0.152-1.295-0.165-1.941,0.005c-0.463-0.156-0.973-0.256-1.55-0.261c-0.83-0.008-1.628-0.029-2.408-0.065
	c-0.663-0.267-1.308-0.602-1.946-1.035c-0.205-0.452-0.483-0.898-0.866-1.322c-0.586-0.65-1.127-1.333-1.649-2.031
	c-0.466-1.412-0.92-2.815-1.183-4.299c-0.005-0.026-0.015-0.046-0.02-0.072c0.036-0.349,0.076-0.698,0.111-1.046
	c0.118-1.171-0.146-2.1-0.635-2.817c-0.003-0.388-0.002-0.776-0.002-1.163c0-0.095-0.023-0.185-0.029-0.279
	c0.035-0.243,0.065-0.493,0.101-0.732c1.331-8.83,4.574-17.195,6.443-25.897c0.128-0.596,0.149-1.156,0.088-1.679
	c1.253-0.44,2.321-1.421,2.777-3.097c1.063-3.903,1.477-7.668,1.001-11.66c0.14-0.413,0.278-0.826,0.432-1.235
	c0.117-0.31,0.187-0.626,0.217-0.942c0.034-0.02,0.061-0.048,0.094-0.069c1.966-0.592,3.441-2.418,3.441-4.557
	c0-2.603-2.172-4.776-4.776-4.776h-0.239c-0.731,0-1.42,0.186-2.045,0.49c-2.787,0.028-5.533,0.16-8.299,0.636
	c-0.136,0.023-0.251,0.068-0.379,0.099c-0.475-0.059-0.953-0.101-1.437-0.097c-0.057,0-0.112,0.014-0.169,0.016
	c-0.54-0.083-1.06-0.145-1.522-0.189c-0.266-0.026-0.518-0.022-0.763-0.004c-0.443-0.139-0.902-0.235-1.386-0.235h-0.239
	c-2.603,0-4.776,2.172-4.776,4.776c0,0.948,0.294,1.836,0.786,2.585c-0.872,3.324-0.164,7.076,0.09,10.5
	c-0.509,0.534-0.929,1.224-1.184,2.121c-1.013,3.573-1.891,7.1-2.081,10.821c-0.07,1.367,0.319,2.406,0.963,3.154
	c-0.045,0.231-0.09,0.462-0.137,0.693c-0.788,0.766-1.304,1.868-1.304,3.317v3.343c0,0.142,0.028,0.27,0.04,0.406
	c-0.015,1.178-0.061,2.354-0.119,3.529c-1.213,2.858-1.737,5.761-1.831,8.959c-0.003,0.096,0.015,0.184,0.018,0.277
	c-0.313,0.604-0.497,1.309-0.496,2.11c0.004,3.363,0.075,6.687,0.478,10.029c0.007,0.054,0.019,0.103,0.027,0.156
	c-0.001,0.019-0.004,0.038-0.005,0.057c-0.253,3.725,0.214,7.434,1.839,10.419c-0.057,0.743-0.074,1.484,0.157,2.218
	c0.687,2.189,2.376,3.884,4.701,4.008c0.498,0.617,1.077,1.19,1.774,1.697c2.157,1.568,4.231,1.737,6.26,1.232
	c4.487-0.089,9.301-2.936,12.932-6.335c0.678,0.103,1.387,0.057,2.091-0.102c0.014,5.048,0.083,10.19,0.722,15.209
	c-0.356,0.641-0.568,1.414-0.568,2.324v3.343c0,1.334,0.456,2.385,1.161,3.152c-0.246,2.105-0.654,4.19-1.308,6.245
	c-0.299,0.941-0.311,1.793-0.119,2.54c-0.137,0.417-0.246,0.858-0.29,1.356c-0.094,1.074-0.167,2.148-0.239,3.223
	c-0.203,0.243-0.39,0.507-0.542,0.814c-0.934,1.885-1.8,3.768-2.493,5.725c-0.044,0.081-0.089,0.163-0.133,0.244
	c-0.131,0.239-0.233,0.476-0.322,0.712c-0.428,0.644-0.82,1.308-1.175,2.008c-1.089,1.235-2.223,2.398-3.064,3.483
	c-1.493,1.928-2.808,3.802-4.349,5.432c-0.207,0.157-0.412,0.329-0.61,0.532c-0.628,0.642-1.282,1.22-1.976,1.737
	c-0.847,0.599-1.779,1.131-2.841,1.572c-0.047,0.02-0.083,0.049-0.13,0.07c-0.012,0-0.022-0.002-0.034-0.002
	c-0.811,0-1.513,0.169-2.11,0.457c-0.664-0.733-1.593-1.254-2.797-1.381c-0.618-1.411-1.877-2.518-3.807-2.64
	c-0.278-1.027-0.855-1.961-1.752-2.58c-0.044-0.372-0.123-0.74-0.243-1.092c0.317-0.631,0.506-1.332,0.506-2.076
	c0-1.152-0.442-2.206-1.141-3.038c-0.128-0.344-0.299-0.693-0.529-1.044c-1.337-2.042,1.189-5.811,2.244-7.57
	c1.471-2.45,4.396-3.889,6.788-5.238c0.075-0.042,0.131-0.095,0.202-0.14c0.499,0.029,0.991,0.069,1.447,0.076
	c3.435,0.049,6.201-4.165,4.124-7.186c-0.415-0.604-1.185-2.402-1.728-3.69c0.07-0.822,0.168-1.646,0.231-2.496
	c0.266-3.559-4.277-6.028-7.186-4.124c-0.723,0.473-1.442,0.943-2.155,1.419c-0.315,0.122-0.632,0.282-0.949,0.491
	c-0.834,0.55-1.694,1.175-2.514,1.868c-0.038,0.017-0.075,0.024-0.113,0.042c-1.227,0.591-2.177,1.369-2.988,2.289
	c-3.482,3.429-6.677,6.574-7.803,11.549c-0.326,1.442-0.026,2.709,0.623,3.71c-0.378,1.948-0.507,3.993-0.317,6.142
	c-0.283,2.581,0.217,5.19,1.847,7.679c0.054,0.082,0.112,0.154,0.168,0.232c0.101,0.472,0.28,0.914,0.512,1.325
	c-0.578,1.974,0.002,4.33,1.74,5.524c0.243,2.047,1.645,3.911,4.193,4.086c0.446,1.68,1.726,3.093,3.824,3.328
	c0.65,1.513,2.046,2.675,4.194,2.675c0.809,0,1.498-0.18,2.095-0.467c0.769,0.855,1.9,1.422,3.397,1.422
	c0.334,0,0.647-0.033,0.945-0.086c0.541,0.005,1.126-0.09,1.757-0.323c0.343-0.127,0.677-0.263,1.011-0.4
	c1.245,0.728,2.821,0.799,4.428-0.32c0.764-0.531,1.492-1.087,2.205-1.654c0.375-0.112,0.755-0.271,1.138-0.495
	c1.229-0.717,2.451-1.446,3.674-2.171c0.529-0.25,1.052-0.555,1.579-0.933c0.463-0.332,0.833-0.707,1.138-1.104
	c0.256-0.088,0.513-0.192,0.773-0.329c5.15-2.716,10.211-9.42,11.088-15.365c0.37-0.376,0.744-0.748,1.101-1.142
	c1.378-1.521,1.501-3.49,0.86-5.131c0.043-0.107,0.086-0.213,0.13-0.32c0.51-1.236,0.395-2.357-0.092-3.287
	c0.031-0.098,0.065-0.192,0.092-0.295c0.219-0.84,0.38-1.659,0.496-2.482c0.073-0.367,0.147-0.734,0.22-1.1
	c0.159-0.793,0.133-1.525-0.027-2.187c0.105-0.261,0.202-0.531,0.266-0.838c0.345-1.655,0.565-3.298,0.641-4.985
	c0.736-0.561,1.314-1.428,1.587-2.657c0.295-0.884,0.371-1.782,0.489-2.702c0.013-0.102,0.016-0.2,0.023-0.299
	c0.114-0.628,0.236-1.254,0.37-1.881c0.523-1.49,0.75-2.915,0.88-4.506c0.067-0.818-0.115-1.549-0.454-2.184
	c0.102-0.541,0.192-1.083,0.261-1.629c0.061-0.269,0.13-0.536,0.181-0.807c0.195-0.872,0.184-1.661,0.024-2.36
	c0.614-1.707,1.113-3.447,1.408-5.281c0.084-0.521,0.066-1.026-0.006-1.516c0.055-0.344,0.11-0.688,0.165-1.031
	c0.075-0.385,0.108-0.755,0.107-1.11c0.015-0.108,0.039-0.215,0.053-0.323c0.001-0.006,0.001-0.012,0.002-0.019
	c0.188-0.649,0.33-1.313,0.406-2.009c0.114-0.464,0.216-0.935,0.306-1.416c0.024-0.076,0.061-0.14,0.082-0.218
	c0.433-1.639,0.682-3.241,0.807-4.931c0.035-0.47-0.02-0.896-0.111-1.299c0.204-0.474,0.365-0.985,0.429-1.566
	c0.08-0.727,0.149-1.45,0.205-2.173c0.447-1.866,0.753-3.689,0.91-5.628c0.005-0.061-0.006-0.113-0.003-0.172
	c0.028-0.085,0.053-0.171,0.08-0.256c0.154-0.305,0.285-0.64,0.389-1.008c0.585-2.077,0.94-4.058,1.126-6.205
	c0.003-0.03-0.003-0.055,0-0.085c0.294-0.754,0.571-1.514,0.785-2.307c0.052-0.192,0.067-0.376,0.095-0.563
	c0.15-0.268,0.279-0.557,0.383-0.87c0.309-0.926,0.492-1.718,0.614-2.535c0.201-0.631,0.38-1.268,0.501-1.922
	c0.159-0.861,0.067-1.681-0.184-2.433c0.118-0.351,0.242-0.703,0.358-1.053c0.846-2.561,1.502-5.179,2.118-7.807
	c1.34-0.422,2.453-1.447,2.802-3.194c0.066-0.328,0.131-0.656,0.197-0.984c0.373-0.501,0.649-1.116,0.758-1.882
	c0.332-2.323,0.646-4.649,0.949-6.976c0.002-0.01,0.004-0.019,0.006-0.028c0,0-0.001,0-0.002,0c0.055-0.423,0.119-0.846,0.173-1.269
	c0.085-0.673,0.016-1.28-0.172-1.817c0.105-0.236,0.205-0.474,0.316-0.708c0.252-0.533,0.385-1.057,0.449-1.569
	c0.494-0.104,0.968-0.277,1.419-0.539c0.518-0.303,0.969-0.706,1.337-1.174c1.019-0.414,2.011-0.891,2.961-1.453
	C466.355,547.302,461.552,539.044,456.239,542.187z"/>
<path fill="#00AEEF" d="M787.78,593.034c-0.117-6.209-1.349-12.141-2.949-18.078c0.211-0.763,0.212-1.64-0.087-2.613
	c-1.197-3.895-1.409-7.882-3.752-11.309c-0.004-0.02-0.009-0.041-0.013-0.061c-0.159-1.015-0.292-2.036-0.411-3.058
	c-0.181-2.176-0.24-4.364-0.611-6.53c-0.221-2.778-0.434-5.564-0.774-8.337c-0.143-1.165-0.723-2.168-1.516-2.955
	c0.238-0.112,0.464-0.256,0.658-0.451c0.895-0.895,0.91-2.363,0.069-3.292c0.154-0.516,0.275-1.036,0.312-1.581
	c0.089-1.3-1.153-2.388-2.388-2.388c-0.613,0-1.132,0.227-1.533,0.585c-2.002-0.918-4.476-0.57-5.775,1.939
	c-0.024,0.047-0.045,0.094-0.069,0.141c-0.675,0.179-1.338,0.508-1.946,1.042c-1.555,0.668-2.97,1.589-4.352,2.583
	c-1.085-0.731-2.328-1.349-3.84-1.821c-0.25-0.078-0.496-0.124-0.738-0.159c-0.433-0.489-0.864-0.982-1.293-1.478
	c-3.909-4.331-9.978,1.381-7.349,5.919c-0.23,0.767-0.262,1.625,0.004,2.549c0.473,1.643,0.847,3.308,1.247,4.969
	c-4.903,5.227-9.412,11.115-12.072,17.721c-1.22-0.906-2.833-1.395-4.305-1.183c-7.971,1.147-19.888,5.808-22.12,14.479
	c-0.108,0.42-0.15,0.817-0.163,1.201c-0.28,0.914-0.498,1.835-0.611,2.768c-1.034,0.786-1.795,2.023-1.943,3.667
	c-0.184,2.037,0.225,4.098,1.217,5.801c-2.319,4.413-6.276,12.683-10.539,12.1c-0.721-0.099-1.057-1.302-1.171-2.959
	c0.49-0.681,0.84-1.514,0.941-2.524c0.344-3.465,0.361-6.97,0.453-10.462c0.179-0.305,0.314-0.63,0.405-0.969
	c0.841-0.983,1.062-2.09,1.226-3.38c0.101-0.799-0.054-1.674-0.148-2.467c-0.07-0.595-0.118-1.324-0.236-2.015
	c0.011-0.047,0.031-0.084,0.04-0.133c0.425-2.135,0.806-4.271,1.136-6.415c0.363-0.497,0.639-1.107,0.775-1.863
	c0.758-4.238,0.797-8.447,0.698-12.676c0.068-0.319,0.11-0.654,0.109-1.01c-0.004-2.348-0.054-4.669-0.318-7.005
	c-0.274-2.421-1.916-3.897-3.76-4.396c-0.129-0.293-0.25-0.585-0.394-0.88c-0.49-1.004-1.153-1.665-1.894-2.049
	c-0.363-0.952-0.726-1.908-1.126-2.859c-0.748-1.779-2.123-2.774-3.592-3.119c-0.39-0.564-0.89-1.053-1.468-1.327
	c-1.257-0.597-1.767-0.724-3.141-0.889c-0.67-0.08-1.398,0.106-2.074,0.363c-3.702-1.367-8.153-0.198-12.023,1.481
	c-0.562,0.244-1.017,0.625-1.375,1.087c-0.471,0.173-0.942,0.347-1.405,0.543c-1.042,0.141-1.872,0.581-2.493,1.199
	c-0.485,0.26-0.966,0.533-1.442,0.821c-1.436,0.545-2.802,1.296-4.11,2.08c-1.33,0.797-2.141,2.166-2.308,3.62
	c-2.875,1.981-5.441,4.163-7.26,7.415c-0.056,0.1-0.1,0.207-0.154,0.309c-0.501,0.477-0.986,0.971-1.433,1.501
	c-4.498,4.21-6.54,9.811-9.025,15.294c-0.623,1.374-0.678,2.646-0.358,3.72c-1.484,3.767-2.682,7.584-2.523,11.744
	c0.062,1.624,0.586,3.159,0.989,4.715c-0.193,0.32-0.363,0.66-0.5,1.02c-1.893,4.959-6.115,8.869-9.07,13.187
	c-0.172,0.252-0.308,0.502-0.425,0.751c-2.571,1.727-5.821,3.289-8.961,2.545c-3.968-0.941-5.017-6.735-5.156-10.051
	c-0.427-10.188,5.736-20.342,10.054-29.178c0.831-1.701,0.66-3.323-0.065-4.594c0.028-0.227,0.059-0.451,0.081-0.682
	c0.002-0.021-0.002-0.04,0-0.061c0.412-0.762,0.774-1.558,1.043-2.423c3.222-7.053,7.186-14.012,5.473-22.028
	c-0.241-1.127-0.805-1.942-1.53-2.503c-0.344-0.83-0.721-1.651-1.18-2.459c-0.422-0.743-0.971-1.27-1.578-1.645
	c-0.512-0.653-1.067-1.285-1.716-1.869c-0.483-0.435-1.032-0.743-1.606-0.954c-0.962-1.719-2.901-2.809-5.269-2.184
	c-7.927,2.091-14.184,7.458-20.264,12.827c-0.783-0.481-1.718-0.751-2.7-0.792c0.522-6.351,1.251-12.672,2.731-18.896
	c0.21-0.885,0.166-1.769-0.073-2.58c0.321-0.301,0.621-0.639,0.865-1.055c1.242-2.12,0.623-5.389-1.713-6.534
	c-2.244-1.099-4.558-2.09-6.872-3.029c-1.67-0.677-3.291-0.056-4.435,1.102c-0.268,0.092-0.543,0.197-0.837,0.334
	c-1.448,0.674-2.417,2.578-2.365,4.124c0.033,0.995,0.185,1.906,0.464,2.761c-1.4,4.204-2.422,8.627-3.245,13.115
	c-0.744,2.807-1.159,5.705-1.388,8.615c-0.547,3.785-1.042,7.542-1.596,11.173c-0.484,3.179-0.886,6.376-1.266,9.577
	c-0.268,1.172-0.527,2.349-0.75,3.541c-0.552,2.95-0.792,5.942-0.989,8.94c-0.675,0.753-1.104,1.78-1.1,3.089
	c0.006,2.141,0.055,4.241,0.318,6.368c0.057,0.458,0.164,0.871,0.294,1.26c-0.953,0.531-1.715,1.463-2.034,2.883
	c-0.008,0.035-0.019,0.069-0.027,0.104c-0.006,0.007-0.013,0.01-0.018,0.017c-3.014,3.611-5.87,7.193-7.122,11.677
	c-4.192,5.571-7.516,11.696-12.828,16.501c-1.901,1.72-3.882,4.688-6.18,6.199c-0.555-0.698-0.969-1.657-1.378-2.401
	c-0.22-0.399-0.429-0.803-0.636-1.208c0-0.003,0.001-0.006,0.001-0.009c0.531-10.364,3.723-20.412,5.413-30.619
	c1.605-9.694,3.239-19.414,6.834-28.605c0.58-1.483,0.391-2.745-0.242-3.708c0.669-1.822,1.333-3.646,1.834-5.525
	c0.145-0.543,0.192-1.054,0.172-1.536c1.587-1.742,1.839-5.006-0.126-6.613c-1.575-1.288-3.02-2.702-4.457-4.139
	c-0.549-0.549-1.133-0.923-1.725-1.151c-0.481-0.36-0.97-0.679-1.467-0.973c-0.135-0.099-0.268-0.201-0.409-0.292
	c-0.97-1.095-2.148-2.467-3.602-2.665c-2.619-0.357-5.75,0.623-6.191,3.687c-0.046,0.318-0.064,0.635-0.067,0.948
	c-0.21,0.138-0.419,0.28-0.615,0.446c-1.896,1.621-3.059,3.947-4.152,6.173c-0.652,0.207-1.296,0.575-1.897,1.15
	c-4.519,4.323-8.411,9.22-12.443,13.988c-0.386-0.779-0.932-1.399-1.569-1.855c0.123-4.277,0.055-8.572,0.124-12.839
	c0.05-0.969,0.069-1.939,0.073-2.922c0.009-2.472-1.485-3.945-3.293-4.433c-0.158-0.502-0.33-0.999-0.543-1.479
	c-1.828-4.125-7.516-2.324-8.729,1.141c-0.108,0.247-0.234,0.485-0.352,0.726c-0.93,0.852-1.649,1.842-2.351,2.909
	c-0.153,0.233-0.275,0.466-0.379,0.699c-3.906,2.587-7.292,5.953-10.972,8.841c-0.508,0.398-0.858,0.913-1.085,1.484
	c-0.516,0.319-1.01,0.636-1.451,0.954c-0.245,0.177-0.46,0.367-0.658,0.565c0.462-2.862,0.753-5.741,0.828-8.6
	c0.398-0.667,0.814-1.33,1.27-1.987c2.536-3.652-1.617-7.902-5.393-7.016c-2.884,0.677-6.979,0.482-9.692-0.792
	c-4.309-2.024-8.834,2.099-6.534,6.534c-0.005-0.167-0.01-0.333-0.015-0.5c0.1,1.053,0.492,2.058,1.093,2.878
	c-0.653,0.746-1.083,1.74-1.093,3.012c-0.172,20.072-5.853,39.525-7.885,59.385c-0.725,0.759-1.19,1.818-1.189,3.177
	c0.001,1.518,0.015,3.032,0.053,4.544c-0.74,2.536-1.631,4.748-3.034,6.933c-0.192,0.147-0.382,0.296-0.573,0.444
	c-0.425,0.327-0.867,0.616-1.33,0.875c-0.122,0.035-0.24,0.082-0.366,0.11c-2.059,0.464-3.506,2.557-3.506,4.605
	c0,2.603,2.172,4.776,4.776,4.776h1.592c0.016,0,0.031-0.005,0.047-0.005c1.293,0.439,2.704,0.358,3.829-0.542
	c2.794,0.356,5.632,0.284,8.401-0.226c1.226,0.526,2.649,0.509,3.983-0.436c0.852-0.603,1.645-1.218,2.399-1.941
	c1.794-1.719,1.622-4.387,0.371-6.223c-0.194-1.336-0.857-2.356-1.769-3.021c-0.158-0.335-0.34-0.645-0.553-0.92
	c1.493-4.11,2.017-8.803,2.395-13.033c0.06-0.672-0.033-1.27-0.226-1.804c0.356-1.655,0.688-3.316,1.012-4.978
	c0.957-1.032,1.442-2.5,0.954-4.278c-0.039-0.134-0.071-0.27-0.106-0.405c0.746-2.35,1.355-4.743,1.737-7.213
	c0.014-0.037,0.026-0.074,0.04-0.11c-0.008-0.001-0.015-0.002-0.023-0.003c0.064-0.422,0.143-0.839,0.193-1.266
	c0.094-0.8-0.001-1.48-0.215-2.066c0.097-0.4,0.197-0.798,0.283-1.201c0.219-1.022,0.17-1.926-0.066-2.702
	c0.314-0.828,0.588-1.673,0.783-2.551c0.116-0.524,0.144-1.016,0.122-1.486c1.367-0.679,2.337-2.033,2.197-4.082
	c-0.007-0.097-0.003-0.194-0.008-0.291c0.964,0.114,1.938-0.072,2.736-0.68c2.72-2.071,5.301-4.282,7.828-6.556
	c1.431,2.291,2.422,4.76,3.119,7.324c-0.014,0.267-0.014,0.543,0.015,0.839c0.243,2.456,0.343,4.949,0.362,7.455
	c-0.008,1.226-0.03,2.454-0.043,3.688c0,0.034,0.008,0.062,0.008,0.095c-0.126,5.094-0.531,10.206-0.888,15.17
	c-0.379,5.271-0.923,10.537-1.982,15.719c-0.337,1.648-0.886,3.987-1.401,5.203c-0.054,0.129-0.235,0.432-0.417,0.735
	c-5.005-0.042-5.528,7.964-0.729,9.392c1.344,0.4,2.542,0.451,3.622,0.24c2.103,2.226,7.009,2.201,8.621-1.666
	c1.682-4.038,3.074-8.226,4.212-12.512c0.662-0.396,1.246-1.027,1.675-1.948c3.776-8.102,4.508-16.744,5.944-25.454
	c0.988-5.996,3.093-11.769,4.019-17.712c1.4,0.398,2.962,0.081,4.255-1.397c4.827-5.519,9.266-11.391,14.567-16.478
	c-0.574,2.234-0.856,4.581-0.98,6.859c-1.298,2.713-1.66,5.788-1.682,8.789c-0.001,0.14,0.029,0.273,0.04,0.411
	c-1.357,5.281-2.35,10.626-2.608,16.084c-2.357,10.525-3.654,21.134-0.929,32.159c-0.513,1.184-0.519,2.602,0.329,4.062
	c2.017,3.474,3.702,8.929,7.613,10.809c4.689,2.255,8.118,0.043,11.713-3.073c3.798-3.293,7.931-7.015,11.092-10.896
	c1.501-1.843,2.803-3.821,4.075-5.816c0.464-0.066,0.926-0.203,1.371-0.419c-0.279,1.938-0.436,3.89-0.558,5.845
	c-0.374,0.481-0.647,1.07-0.766,1.781c-0.473,2.815-0.939,5.506-1.156,8.214c-0.311,0.391-0.577,0.828-0.754,1.337
	c-1.685,4.856-2.712,9.983-3.142,15.141c-0.064,0.095-0.136,0.172-0.197,0.275c-2.556,4.272-2.483,9.146-2.661,13.971
	c-0.008,0.215-0.025,0.429-0.038,0.644c-0.454,0.497-0.804,1.094-0.967,1.808c-0.243,1.065-0.43,2.138-0.593,3.212
	c-0.528,0.722-0.851,1.666-0.851,2.833v2.699c-0.306,0.41-0.574,0.885-0.785,1.444c-1.546,4.111-1.785,8.457-2.417,12.724
	c-0.485,0.507-0.875,1.134-1.085,1.921c-0.388,1.454-0.608,2.897-0.718,4.366c-0.172,0.663-0.36,1.324-0.555,2.002
	c-1.201,4.163,3.41,7.326,7.016,5.393c1.598-0.856,2.945-1.96,4.231-3.132c0.221-0.054,0.445-0.118,0.678-0.207
	c0.883-0.338,1.726-0.69,2.531-1.086c0.59-0.085,1.194-0.297,1.794-0.669c1.192-0.739,2.275-1.101,3.635-1.429
	c3.265-0.787,4.065-4.105,2.879-6.639c1.977-4.24,2.557-8.763,2.789-13.369c1.34-5.744,2.642-11.497,3.739-17.277
	c0.88-4.639,2.234-9.177,3.162-13.808c0.76-3.795,0.677-7.675,1.04-11.506c0.146-0.615,0.285-1.23,0.417-1.846
	c0.142-0.399,0.257-0.82,0.306-1.289c0.01-0.097,0.005-0.193,0.013-0.29c0.486-2.569,0.799-5.158,0.798-7.777
	c0.291-0.6,0.463-1.305,0.463-2.121v-4.776c0-0.152-0.01-0.298-0.022-0.442c0.444-3.859,0.878-7.725,1.328-11.613
	c0.835-7.212,2.861-16.249,0.261-23.5c0.007-0.99,0.024-1.979,0.024-2.97c0-0.254-0.038-0.48-0.067-0.713
	c1.5-2.653,3.695-4.882,5.991-7.054c1.354-1.281,1.68-2.785,1.357-4.148c2.946-2.085,5.959-4.124,8.513-6.677
	c0.587-0.587,0.957-1.257,1.146-1.955c0.27-0.22,0.527-0.455,0.795-0.677c0.423,0.125,0.872,0.213,1.369,0.21
	c1.42-0.007,2.839-0.019,4.258,0.02c0.061-0.003,0.119,0.008,0.18,0.007c-1.746,6.472-5.375,12.465-7.642,18.792
	c-2.212,6.175-4.558,12.292-6.401,18.591c-1.312,4.486-2.526,9.447-2.795,14.333c-0.709,0.744-1.199,1.748-1.29,3.019
	c-0.265,3.663,1.364,7.031,3.467,10.03c0.049,0.925,0.342,1.844,0.931,2.652c0.048,0.521,0.176,1.031,0.394,1.508
	c1.473,3.23,3.623,5.169,6.286,6.257c3.476,3.478,7.593,3.252,11.782,1.835c0.13-0.001,0.247,0.015,0.383,0.005
	c3.849-0.287,7.274-1.419,10.689-3.199c0.368-0.192,0.682-0.418,0.957-0.665c4.348-2.13,8.586-4.474,12.885-6.706
	c0.068,0.068,0.127,0.144,0.197,0.211c0.877,3.786,3.12,6.691,5.963,9.279c0.799,0.728,1.71,1.111,2.627,1.226
	c0.565,0.558,1.131,1.113,1.707,1.66c0.63,0.661,1.287,1.278,2.034,1.89c0.284,0.233,0.575,0.426,0.871,0.586
	c0.927,0.83,1.861,1.654,2.804,2.469c0.435,1.626,1.548,3.095,3.208,3.585c0.454,0.134,0.905,0.243,1.355,0.342
	c1.267,0.847,2.988,1.073,4.872,0.132c0.212-0.106,0.424-0.212,0.637-0.318c0.711-0.356,1.23-0.81,1.615-1.313
	c0.592-0.431,1.179-0.866,1.76-1.308c0.612,0.103,1.239,0.094,1.852-0.082c1.474-0.423,2.923-1.015,4.333-1.728
	c1.631,0.164,3.365-0.408,4.571-2.059c0.544-0.745,1.091-1.469,1.638-2.186c2.906-2.582,5.336-5.73,6.979-9.144
	c1.163,1.399,2.749,2.351,4.788,2.379c1.626,0.023,3.053-0.503,4.367-1.278c0.517-0.093,1.032-0.242,1.529-0.475
	c5.294-2.485,8.691-7.991,10.473-13.361c0.05-0.15,0.077-0.303,0.105-0.456c0.54,0.073,1.096,0.075,1.654-0.029
	c0.094-0.018,0.18-0.043,0.272-0.062c0.986,0.186,2.054,0.083,3.097-0.42c0.489-0.236,0.991-0.44,1.502-0.624
	c0.276,0.03,0.564,0.032,0.864,0.003c2.477-0.246,4.438-0.965,6.03-2.16c-0.03,2.992,0.266,5.916,0.827,8.524
	c0.183,0.851,0.576,1.531,1.097,2.055c1.989,5.217,5.615,10.175,10.585,12.085c0.02,0.022,0.033,0.044,0.054,0.066
	c4.727,5.004,11.384,5.226,17.716,4.038c2.221,0.244,4.303-0.09,6.272-0.82c0.332,0.066,0.675,0.107,1.04,0.091
	c2.929-0.132,5.154-1.246,6.911-2.922c1.195-0.179,2.368-0.888,3.262-2.309c0.192-0.306,0.363-0.616,0.537-0.926
	c1.289-0.166,2.507-0.865,3.284-2.258c3.131-5.614,4.675-11.823,6.212-18.015c0.419-1.686,0.551-3.351,0.497-5.003
	C787.559,594.682,787.797,593.901,787.78,593.034z M684.862,564.183c-0.077,0.107-0.153,0.216-0.223,0.333
	c-2.215,3.671-3.949,7.593-6.368,11.143c-0.697,1.023-0.873,2.086-0.692,3.072c-1.1,1.752-1.905,3.621-1.888,5.891
	c-1.989,2.541-1.733,6.69,2.251,7.287c1.677,0.247,5.037,0.507,6.938,1.795c-0.112,1.759-0.54,3.501-0.967,5.248
	c-0.455,0.379-0.864,0.877-1.183,1.542c-2.223,4.62-3.962,9.438-5.965,14.15c-1.272,1.924-2.505,3.871-3.586,5.908
	c-0.141,0.265-0.246,0.531-0.335,0.795c-0.825,0.927-1.73,1.771-2.688,2.577c-0.054-0.17-0.116-0.34-0.191-0.507
	c-1.531-3.404-3.034-6.746-5.094-9.87c-0.269-0.409-0.572-0.748-0.895-1.037c-0.99-2.877-2.055-5.708-3.244-8.515
	c-0.231-0.545-0.556-0.986-0.945-1.333c0.001-0.026,0.005-0.05,0.005-0.077c0.026-2.823,0.007-5.488-0.532-8.1
	c-0.223-1.762-0.52-3.517-0.912-5.268c-0.039-0.174-0.106-0.322-0.16-0.481c0.304-2.706,0.576-5.414,0.849-8.123
	c0.21-0.479,0.374-0.997,0.436-1.588c0.641-6.039,2.982-11.195,6.034-16.374c0.509-0.864,0.702-1.737,0.662-2.562
	c0.273-0.31,0.54-0.623,0.82-0.929c1.329-1.451,1.627-3.026,1.265-4.389c1.193-1.073,2.328-2.222,3.302-3.582
	c0.288-0.402,0.485-0.816,0.608-1.232c0.12-0.025,0.239-0.053,0.359-0.076c0.978-0.185,1.775-0.755,2.368-1.505
	c1.237-0.569,2.497-1.008,3.813-1.354c0.086,1.739,0.536,3.46,1.302,5.133c1.475,3.22,4.551,6.392,4.937,9.995
	c0.046,0.427,0.14,0.821,0.267,1.189C685.074,563.597,684.96,563.88,684.862,564.183z M763.042,593.7
	c-0.291,1.684-0.485,3.411-0.766,5.11c-0.582,0.346-1.114,0.793-1.543,1.365c-0.667,0.889-1.251,1.816-1.807,2.759
	c-1.837,2.18-3.501,4.494-5.198,6.793c-0.1,0.136-0.186,0.274-0.265,0.413c-2.163,1.214-4.161,2.821-6.429,4.159
	c-1.856,1.095-3.754-0.32-5.267-2.399c0.004-0.696-0.141-1.428-0.486-2.173c-0.986-2.129-0.807-4.875-0.465-7.339
	c0.068-0.245,0.129-0.494,0.162-0.757c0.106-0.849,0.212-1.698,0.318-2.547c0.16-1.277-0.251-2.315-0.973-3.089
	c0.047-0.975,0.201-1.956,0.484-2.965c0.265-0.945,0.254-1.802,0.043-2.554c0.408-0.797,0.861-1.58,1.386-2.355
	c1.003-1.48,0.915-3.052,0.223-4.352c0.136-0.247,0.27-0.494,0.413-0.742c0.554-0.962,0.767-1.881,0.728-2.719
	c0.582-0.353,1.104-0.816,1.501-1.42c2.749-4.175,4.858-8.97,7.427-13.396c0.844,0.135,1.717,0.057,2.527-0.293
	c1.407,2.565,3.208,4.818,5.109,7.028c0.014,0.245,0.032,0.491,0.087,0.744c0.877,4.043,2.062,8.005,3.031,12.023
	c-0.205,0.509-0.328,1.066-0.336,1.671C762.915,589.051,762.885,591.37,763.042,593.7z"/>
<path fill="#00AEEF" d="M835.668,502.691c0.592-2.643,0.53-5.275,0.018-8.034c-0.412-2.224-2.238-3.319-4.167-3.409
	c-0.926-0.757-2.103-1.284-3.648-1.445c-6.101-0.635-7.162,4.325-8.211,8.894c-0.067,0.135-0.132,0.272-0.19,0.417
	c-0.458,1.145-0.857,2.314-1.282,3.471c-0.373,0.45-0.701,0.979-0.946,1.623c-0.279,0.731-0.587,1.45-0.893,2.169
	c-0.325,0.313-0.614,0.693-0.854,1.147c-0.513,0.971-0.928,1.964-1.36,2.966c-2.582,1.394-3.111,5.128-1.077,7.598
	c1.214,1.474,2.791,2.284,4.491,2.608c0.005,0.02,0.006,0.04,0.011,0.06c0.563,2.049,2.481,3.506,4.605,3.506
	c2.362,0,4.023-1.416,5.606-2.991c0.588-0.586,0.967-1.303,1.179-2.062c1.002-0.714,1.938-1.501,2.76-2.289
	c2.095-2.009,3.642-4.457,4.242-7.294C836.444,507.302,835.991,504.993,835.668,502.691z"/>
<path fill="#00AEEF" d="M1011.922,581.498c-1.361-0.374-2.455,0.46-2.937,1.668c-0.782,1.959-1.095,4.055-1.472,6.129
	c-0.304,1.056-0.533,2.132-0.723,3.243c-0.29,0.198-0.551,0.479-0.748,0.883c-0.312,0.638-0.592,1.3-0.859,1.97
	c-2.223,3.962-3.844,8.214-6.355,11.951c-0.355,0.094-0.701,0.268-1.009,0.56c-2.638,2.499-5.309,2.125-8.223,1.349
	c-0.036-2.577-0.241-5.149-0.432-7.723c0.165-1.616,0.315-3.219,0.325-4.777c0.043-6.864,0.582-13.714,0.626-20.58
	c0.015-0.23,0.028-0.46,0.043-0.69c0.535-0.377,0.912-0.993,0.912-1.869c0-0.542,0.002-1.083,0.003-1.624
	c1.026-3.884,1.446-7.747,0.867-11.746c-0.02-0.138-0.055-0.267-0.099-0.389c0.133-0.578,0.241-1.156,0.324-1.734
	c0.136-0.462,0.271-0.923,0.411-1.384c0.082-0.269,0.105-0.518,0.102-0.757c0.585-0.252,1.051-0.72,1.171-1.472
	c0.703-4.381,1.844-8.672,2.547-13.054c0.167-1.038-0.384-2.003-1.16-2.572c0.512-0.782,1.102-1.498,1.819-2.106
	c1.293-1.096,0.636-2.895-0.483-3.75c-4.434-3.386-9.999-5.485-14.356-0.9c-0.814,0.857-0.871,1.808-0.499,2.568
	c-0.53,0.498-1.046,1.012-1.549,1.538c-0.858-0.087-1.72,0.236-2.146,1.153c-0.385,0.829-0.822,1.615-1.283,2.381
	c-4.948,3.664-10.79,7.192-13.436,12.501c-0.565,0.77-1.062,1.606-1.441,2.562c-0.094,0.236-0.134,0.461-0.148,0.678
	c-0.307,0.332-0.618,0.659-0.94,0.973c-0.042-0.206-0.1-0.405-0.19-0.586c0.069-1.522,0.149-3.044,0.238-4.569
	c0.215-3.679-1.074-7.295-2.065-10.844c0.188-0.155,0.367-0.318,0.564-0.466c1.288-0.972,1.215-2.592,0.502-3.626
	c0.251-0.901-0.016-1.882-1.139-2.409c-0.889-0.417-1.673-0.512-2.378-0.391c-0.586-1.53-1.454-2.558-3.034-3.429
	c-0.857-0.472-2.229-0.472-2.894,0.373c-1.923,2.447-3.367,5.182-4.876,7.874c-1.354,2.122-2.934,4.059-4.094,6.3
	c-0.45,0.87-0.267,1.817,0.227,2.537c-0.288,0.527-0.572,1.062-0.863,1.602c-0.14,0.26-0.219,0.523-0.258,0.783
	c-1.181-0.579-2.877-0.248-3.485,1.379c-0.33,0.883-0.98,1.822-1.792,2.721c-0.115,0.007-0.23,0.014-0.336,0.036
	c0.069-0.287,0.09-0.589,0.043-0.9c0.25-0.747,0.121-1.594-0.61-2.274c-0.439-0.369-0.779-0.791-1.044-1.253
	c-0.084-0.505-0.178-1.007-0.252-1.513c-0.013-0.088-0.042-0.162-0.063-0.243c1.114-3.451,2.226-6.884,1.741-10.584
	c-0.352-2.686-3.673-3.237-4.691-0.635c-0.124,0.318-0.23,0.633-0.349,0.95c-2.886-2.04-6.705-2.725-10.359-2.799
	c-1.317-0.393-2.391-0.382-3.25-0.061c-0.281-0.336-0.684-0.599-1.253-0.713c-0.531-0.106-1.061-0.212-1.592-0.318
	c-1.199-0.24-2.714,0.531-3.031,1.724c-0.331,0.172-0.629,0.452-0.866,0.854c-1.183,0.261-2.219,1.343-1.906,2.906
	c0.088,0.439,0.175,0.878,0.263,1.316c0.304,2.086,0.246,4.551,1.251,6.259c1.142,1.94,3.054,3.621,4.106,5.637
	c-0.105,0.596-0.228,1.205-0.39,1.845c-0.284,1.119-0.596,2.221-0.909,3.318c-0.301,0.357-0.516,0.814-0.586,1.367
	c-0.042,0.333-0.062,0.664-0.078,0.995c-0.822,2.993-1.51,5.991-1.514,9.194c0,0.455,0.118,0.842,0.308,1.17
	c-0.077,0.249-0.153,0.497-0.222,0.743c-3.241,11.47-6.795,22.821-12.33,33.331c-1.194-1.033-3.392-0.905-3.863,0.904
	c-1.87-0.009-3.822-0.098-5.561-0.493c-0.449-0.826-1.097-1.492-2.026-1.913c0.158-0.795,0.107-1.619-0.29-2.414
	c-0.446-0.893-0.843-1.738-1.195-2.568c0.143-1.534,0.284-3.067,0.421-4.602c1.332-7.609,4.25-14.938,6.295-22.443
	c0.919-3.026,1.628-6.119,1.908-9.356c0.019-0.217,0.008-0.415-0.019-0.601c0.339-1.138,0.684-2.273,1.026-3.41
	c1.819-3.571,2.719-7.473,3.459-11.405c0.193-0.63,0.386-1.26,0.58-1.889c0.75-0.313,1.322-1.016,1.322-2.116v-2.547
	c0-1.488-1.146-2.292-2.321-2.317c-0.309-0.403-0.69-0.768-1.157-1.086c-0.496-0.337-0.973-0.509-1.433-0.555
	c-0.195-0.105-0.409-0.196-0.663-0.255c-3.117-0.719-6.062-1.361-9.238-1.093c-5.575-0.19-11.054,0.879-9.088,6.531
	c0.676,1.942,1.798,3.47,3.055,5.075c1.315,1.678,1.804,3.258,1.826,4.891c-0.509,2.054-0.939,4.122-1.3,6.201
	c-1.727,5.716-2.491,11.681-2.978,17.636c-0.576,0.588-0.942,1.35-1.216,2.177c-0.997,0.151-1.878,0.901-1.913,2.276
	c-0.1,3.98-1.165,7.774-1.938,11.64c-0.048,0.17-0.104,0.337-0.151,0.507c-0.62,1.642-1.201,3.295-1.71,4.967
	c-0.342,0.003-0.7,0.072-1.067,0.246c-1.369,0.65-2.676,1.418-3.967,2.215c-3.938,2.163-7.757,3.94-12.18,3.889
	c0.206-0.987,0.455-1.935,0.566-2.928c1.966-7.506,4.514-14.839,4.858-22.677c0.36-8.221,0.332-16.293,1.009-24.448
	c1.326-1.718,2.114-3.654,2.622-5.7c0.146-0.374,0.285-0.753,0.412-1.143c0.13-0.398,0.13-0.772,0.052-1.118
	c0.097-0.574,0.184-1.152,0.263-1.733c0.001-0.005,0.003-0.009,0.004-0.014c-0.001,0-0.001,0-0.001,0
	c0.019-0.148,0.041-0.295,0.06-0.443c1.697-0.692,2.522-3.149,0.436-4.164c-4.306-2.096-8.802-3.725-13.306-5.335
	c-0.224-0.08-0.438-0.113-0.646-0.125c-0.266-0.101-0.548-0.188-0.86-0.247c-1.583-1.081-3.925-0.937-5.615,0.16
	c-0.454,0.161-0.862,0.444-1.156,0.828c-0.31,0.026-0.602,0.132-0.875,0.28c-1.663,0.014-3.249,1.831-2.141,3.566
	c0.264,0.414,0.449,0.868,0.595,1.34c-0.088,0.794-0.006,1.608,0.236,2.357c-0.303,0.943-0.006,2.061,0.719,2.708
	c0.011,0.037,0.016,0.076,0.028,0.112c0.339,1.079,0.964,1.982,1.471,2.936c0.583,2.591,0.81,5.831,0.972,7.059
	c0.364,2.751,0.421,5.527,0.23,8.288c-0.922,4.99-2.514,9.862-4.136,14.656c-0.231,0.684-0.491,1.358-0.749,2.032
	c-1.461,2.071-2.313,4.347-2.93,6.816c-1.511,3.284-3.043,6.557-4.21,9.957c-2.796,3.711-7.985,5.765-12.521,5.828
	c-2.687,0.037-4.084-3.922-4.517-5.951c-0.563-2.638,0.155-5.801,0.597-8.405c0.02-0.118,0.017-0.23,0.03-0.346
	c0.399-1.104,0.759-2.187,1.016-3.238c1.594-6.52,2.132-13.06,4.685-19.34c0.389-0.956,0.445-1.819,0.267-2.57
	c0.396-0.903,0.721-1.834,0.931-2.815c0.286-0.272,0.515-0.602,0.638-0.98c0.962-2.944,1.836-5.9,2.547-8.915
	c0.132-0.56,0.055-1.075-0.147-1.519c0.024-0.056,0.044-0.113,0.068-0.168c0.423-0.195,0.81-0.35,0.008-0.019
	c0.01-0.024,0.019-0.048,0.029-0.072c1.849-0.994,3.084-2.726,2.777-4.898c0.62-0.877,1.107-1.843,1.405-2.875
	c0.766-2.658-2.848-3.933-4.221-2.046c-0.608-0.031-1.222,0.177-1.704,0.696c-0.492-0.021-0.988,0.052-1.468,0.249
	c-0.662,0.271-1.279,0.566-1.878,0.885c-0.147-0.21-0.304-0.415-0.48-0.612c-0.048-0.054-0.109-0.09-0.16-0.14
	c-0.619-1.873-2.547-3.169-4.491-3.169h-0.318c-0.028,0-0.055,0.008-0.083,0.008c-1.147-2.05-4.515-1.788-4.533,0.947
	c-0.005,0.731,0.071,1.432,0.185,2.119c-0.096,0.268-0.175,0.541-0.222,0.823c-0.373,0.949-0.48,2.026-0.27,3.104
	c0,0,0.001,0.003,0.001,0.005l-0.001,0.003c-0.97,3.605-2.043,7.19-3.164,10.766c-1.158,2.369-2.421,4.708-3.348,7.215
	c-1.298,3.508-2.099,7.282-2.584,11.093c-2.616,8.161-5.049,16.365-6.698,24.737c-1.025,5.204-1.244,10.518-0.368,15.695
	c-0.868,1.046-1.253,2.447-0.712,4.032c1.581,4.636,4.119,8.842,7.608,11.383c2.471,3.167,5.357,6.041,8.266,8.873
	c2.345,2.282,5.272,1.563,6.866-0.37c0.544-0.008,1.114-0.043,1.741-0.139c6.669-1.018,12.169-8.165,15.348-15.105
	c0.336-0.17,0.659-0.366,0.948-0.623c1.086-0.968,2-2.039,2.816-3.174c-0.234,3.684,0.223,7.381,1.45,10.646
	c0.602,1.601,1.44,2.761,2.44,3.583c-0.011,1.023,0.608,2.104,1.7,2.516c2.296,0.868,4.097,0.405,5.793-0.584
	c0.086,0.009,0.162,0.033,0.254,0.033h1.592c8.131,0.6,13.6-6.313,17.411-12.577c0.912-1.498,1.727-3.042,2.505-4.604
	c1.963,7.532,10.413,15.493,18.29,14.952c1.227-0.084,1.956-0.907,2.2-1.846c1.8-0.167,3.525-0.467,4.999-0.821
	c1.821-0.437,3.443-1.197,4.683-2.303c1.299,1.804,2.63,3.059,4.742,4.008c0.225,0.101,0.473,0.183,0.728,0.237
	c0.386,0.446,0.966,0.742,1.75,0.726c3.695-0.074,6.536-2.393,9.802-3.828c0.422-0.185,0.716-0.531,0.906-0.936
	c0.145-0.003,0.285-0.001,0.436-0.011c2.148-0.151,3.067-2.454,1.689-4.076c-1.046-1.231-1.868-2.445-2.849-3.554
	c0.227-0.55,0.437-1.103,0.62-1.663c0.266-0.191,0.506-0.449,0.691-0.804c0.936-1.789,1.634-3.535,1.986-5.397
	c0.471-0.851,1.047-1.654,1.78-2.398c1.026-1.04,0.916-3.052-0.483-3.75c-1.347-0.672-2.489-1.403-3.5-2.399
	c0.608-1.475,1.064-2.873,1.413-4.456c0.116-0.524,0.043-1.015-0.145-1.447c0.189-0.22,0.348-0.48,0.464-0.782
	c0.628-1.645,1.046-3.339,1.364-5.055c0.985-2.867,1.684-5.797,2.103-8.769c1.403-3.38,3.212-6.645,4.493-10.055
	c0.35-0.932,0.077-1.698-0.481-2.21c0.027-0.048,0.049-0.1,0.073-0.151c0.546-0.612,0.964-1.24,1.293-1.921
	c0.504,0.093,1.036,0.006,1.519-0.339c0.842-0.602,1.568-1.21,2.216-1.89c0.615,0.057,1.202,0.063,1.773,0.035
	c0.112,0.189,0.251,0.369,0.44,0.526c1.318,1.099,2.625,1.988,4.124,2.817c0.465,3.748,2.445,6.708,4.103,9.962
	c0.009,0.159,0.033,0.324,0.074,0.495c0.116,0.48,0.213,0.958,0.299,1.434c-0.365,0.386-0.631,0.872-0.703,1.433
	c-0.214,1.667-0.432,3.331-0.656,4.992c-0.724,3.367-1.339,6.764-1.787,10.211c-0.13,0.999-0.272,1.997-0.408,2.995
	c-0.065,0.307-0.135,0.613-0.202,0.919c-1.102,2.751-1.731,5.603-2.275,8.584c-0.129,0.706,0.011,1.309,0.304,1.788
	c-0.283,0.269-0.507,0.622-0.622,1.078c-0.56,2.215-0.944,4.427-1.274,6.686c-0.037,0.252-0.029,0.487-0.003,0.714
	c-0.593,0.245-1.083,0.736-1.271,1.515c-0.36,1.496-0.609,2.924-0.722,4.455c-0.016,0.22,0.003,0.419,0.036,0.608
	c-0.011,0.032-0.018,0.065-0.029,0.097c-0.135,0.307-0.2,0.62-0.214,0.927c-1.57,0.733-1.949,3.323-0.203,4.25
	c5.054,2.683,12.687,2.702,17.39-0.976c0.719-0.093,1.395-0.506,1.796-1.154c0.177-0.286,0.34-0.574,0.498-0.863
	c0.733-0.169,1.384-0.679,1.654-1.618c1.54-5.356,2.817-10.755,3.821-16.238c1.025-5.599,0.212-11.32,1.592-16.874
	c0.189-0.762,0.043-1.407-0.293-1.898c0.603-4.695,1.061-9.404,1.241-14.144c0.163-1.443,0.425-2.911,1.04-3.764
	c0.814-1.131,0.406-2.226-0.442-2.87c-0.07-0.275-0.191-0.521-0.341-0.746c0.474-0.268,0.86-0.719,1.023-1.412
	c0.064-0.272,0.112-0.544,0.165-0.815c2.055-1.175,3.83-2.854,5.481-4.716c1.194-1.094,2.368-2.215,3.562-3.324
	c0.279-0.212,0.557-0.426,0.836-0.638c1.512-0.941,3.06-1.835,4.563-2.765c0.093-0.025,0.184-0.043,0.28-0.083
	c0.192-0.078,0.378-0.165,0.568-0.247c0.001,0.002,0.002,0.004,0.002,0.006c0.014-0.008,0.028-0.017,0.042-0.025
	c1.153-0.499,2.275-1.049,3.38-1.632c0.164,0.058,0.341,0.09,0.525,0.104c-0.306,2.591-0.381,5.18-0.363,7.772
	c-0.598,0.374-1.054,1.008-1.127,1.907c-0.49,6.029-2.384,11.652-2.18,17.603c-1.073,4.734-1.038,9.853-0.954,14.85
	c-0.014,0.22-0.037,0.439-0.049,0.659c-0.016,0.273,0.018,0.512,0.072,0.736c0.009,0.555,0.018,1.11,0.024,1.66
	c-0.767,0.372-1.363,1.087-1.37,2.062c-0.031,4.726-0.161,9.398,1.04,14.007c0.148,0.569,0.508,1,0.964,1.289
	c0.272,1.106,0.654,2.184,1.16,3.232c-0.293,0.643-0.342,1.396,0.028,2.099c0.54,1.027,1.138,1.845,1.776,2.522
	c1.655,2.576,3.41,5.4,6.794,5.287c5.874-0.197,10.769-4.021,15.393-7.27c3.833-2.694,7.544-6.108,9.788-10.273
	c2.241-4.159-0.309-9.242-0.629-13.573c0.396-0.909,0.794-1.817,1.172-2.734c0.163-0.396,0.205-0.757,0.169-1.084
	c0.696-2.013,1.268-4.059,1.508-6.237c0.033-0.297,0.005-0.557-0.05-0.796c0.026-0.335-0.031-0.66-0.133-0.971
	c0.195-0.806,0.426-1.602,0.735-2.375C1014.074,583.225,1013.072,581.815,1011.922,581.498z M1005.166,611.606
	c0.139,0.126,0.291,0.234,0.456,0.322c-0.255,0.352-0.535,0.698-0.835,1.037C1004.927,612.518,1005.052,612.064,1005.166,611.606z"
	/>
</svg>
